<svg xmlns="http://www.w3.org/2000/svg" viewBox="0 0 800 480" width="100%" height="100%">
  <!-- Window Frame -->
  <rect width="800" height="480" rx="6" fill="#f0f0f0" stroke="#999999" stroke-width="1" />

  <!-- Title Bar -->
  <rect x="0" y="0" width="800" height="32" rx="6" fill="#ffffff" />
  <rect x="0" y="26" width="800" height="6" fill="#ffffff" />
  <line x1="0" y1="32" x2="800" y2="32" stroke="#d4d4d4" stroke-width="1" />
  <text x="14" y="21" fill="#1e293b" font-family="'Segoe UI', sans-serif" font-size="12" font-weight="600">R1</text>
  
  <!-- Window Control Buttons -->
  <g transform="translate(725, 6)">
    <line x1="4" y1="10" x2="16" y2="10" stroke="#333333" stroke-width="1.2" />
    <rect x="28" y="4" width="12" height="12" fill="none" stroke="#333333" stroke-width="1.2" />
    <line x1="52" y1="4" x2="64" y2="16" stroke="#333333" stroke-width="1.2" />
    <line x1="64" y1="4" x2="52" y2="16" stroke="#333333" stroke-width="1.2" />
  </g>

  <!-- PT Tabs Bar -->
  <g transform="translate(10, 38)">
    <rect x="0" y="0" width="80" height="26" rx="2" fill="#e1e4e8" stroke="#cbd5e1" stroke-width="1" />
    <text x="40" y="17" fill="#475569" font-family="'Segoe UI', sans-serif" font-size="11" text-anchor="middle">Physical</text>

    <rect x="85" y="0" width="80" height="26" rx="2" fill="#e1e4e8" stroke="#cbd5e1" stroke-width="1" />
    <text x="125" y="17" fill="#475569" font-family="'Segoe UI', sans-serif" font-size="11" text-anchor="middle">Config</text>

    <!-- Tab: CLI (Active) -->
    <rect x="170" y="0" width="75" height="27" rx="2" fill="#ffffff" stroke="#999999" stroke-width="1" />
    <line x1="171" y1="27" x2="244" y2="27" stroke="#ffffff" stroke-width="2" />
    <text x="207" y="17" fill="#0f172a" font-family="'Segoe UI', sans-serif" font-size="11" font-weight="bold" text-anchor="middle">CLI</text>

    <rect x="250" y="0" width="85" height="26" rx="2" fill="#e1e4e8" stroke="#cbd5e1" stroke-width="1" />
    <text x="292" y="17" fill="#475569" font-family="'Segoe UI', sans-serif" font-size="11" text-anchor="middle">Attributes</text>
  </g>

  <!-- Terminal Canvas -->
  <rect x="10" y="65" width="780" height="400" fill="#000000" stroke="#777777" stroke-width="1" />

  <g transform="translate(24, 90)" font-family="'Courier New', Courier, monospace" font-size="12" fill="#ffffff">
    <text y="0">Router&gt; enable</text>
    <text y="18">Router# configure terminal</text>
    <text y="36">Router(config)# hostname R1</text>
    <text y="58">R1(config)# interface GigabitEthernet0/0</text>
    <text y="76">R1(config-if)# no shutdown</text>
    <text y="94" fill="#4ade80">%LINK-5-CHANGED: Interface GigabitEthernet0/0, changed state to up</text>
    <text y="112">R1(config-if)# exit</text>
    <text y="134">R1(config)# interface GigabitEthernet0/0.10</text>
    <text y="152">R1(config-subif)# encapsulation dot1Q 10</text>
    <text y="170">R1(config-subif)# ip address 192.168.10.1 255.255.255.0</text>
    <text y="188">R1(config-subif)# exit</text>
    <text y="210">R1(config)# interface GigabitEthernet0/0.20</text>
    <text y="228">R1(config-subif)# encapsulation dot1Q 20</text>
    <text y="246">R1(config-subif)# ip address 192.168.20.1 255.255.255.0</text>
    <text y="264">R1(config-subif)# end</text>
    <text y="290">R1# show ip interface brief</text>
    <text y="308">Interface              IP-Address      OK? Method Status     Protocol</text>
    <text y="326">GigabitEthernet0/0     unassigned      YES manual <tspan fill="#4ade80">up         up</tspan></text>
    <text y="344">GigabitEthernet0/0.10  192.168.10.1    YES manual <tspan fill="#4ade80">up         up</tspan></text>
    <text y="362">GigabitEthernet0/0.20  192.168.20.1    YES manual <tspan fill="#4ade80">up         up</tspan></text>
    <text y="388">R1# _</text>
  </g>
</svg>